# xmcd CD database file
#
# Track frame offsets:
#	150
#	15299
#	29234
#	48290
#	63438
#	81896
#	97247
#	111424
#	149451
#	163733
#	179753
#	193516
#	214946
#	229147
#	242690
#	257839
#	273730
#	296537
#	315109
#	327812
#	344671
#
# Disc length: 4762 seconds
#
# Revision: 1
# Processed by: cddbd v1.5.2PL0 Copyright (c) Steve Scherf et al.
# Submitted via: CDex 1.51
#
DISCID=45129815
DTITLE=Marty Paich - Tenors West and Take Me Along
DYEAR=2015
DGENRE=Jazz
TTITLE0=Tenors West
TTITLE1=There's No You
TTITLE2=The Dragon
TTITLE3=Shorty George
TTITLE4=Paichence
TTITLE5=At The Marti Gras
TTITLE6=Take The 'A' Train
TTITLE7=Ballet Du Bongo
TTITLE8=Line For Lyons
TTITLE9=Jacqueline
TTITLE10=Con-Spirito
TTITLE11=Overture - Take Me Along
TTITLE12=Nine O'Clock
TTITLE13=Little Green Snake
TTITLE14=Promise Me A Rose
TTITLE15=But Yours
TTITLE16=Sid, Ol' Kid
TTITLE17=Patience Of A Saint
TTITLE18=Staying Young
TTITLE19=Thinkin' Things
TTITLE20=We're Home
EXTD=YEAR: 2015
EXTT0=
EXTT1=
EXTT2=
EXTT3=
EXTT4=
EXTT5=
EXTT6=
EXTT7=
EXTT8=
EXTT9=
EXTT10=
EXTT11=
EXTT12=
EXTT13=
EXTT14=
EXTT15=
EXTT16=
EXTT17=
EXTT18=
EXTT19=
EXTT20=
PLAYORDER=
